<?xml version="1.0" standalone="no"?>
<!DOCTYPE svg PUBLIC "-//W3C//DTD SVG 20010904//EN"
 "http://www.w3.org/TR/2001/REC-SVG-20010904/DTD/svg10.dtd">
<svg version="1.0" xmlns="http://www.w3.org/2000/svg"
 width="512.000000pt" height="512.000000pt" viewBox="0 0 512.000000 512.000000"
 preserveAspectRatio="xMidYMid meet">

<g transform="translate(0.000000,512.000000) scale(0.100000,-0.100000)"
fill="#000000" stroke="none">
<path d="M2385 5114 c-670 -70 -1186 -403 -1440 -929 -115 -237 -185 -557
-185 -844 0 -446 336 -1197 983 -2196 277 -429 785 -1135 816 -1135 10 0 333
443 533 730 843 1212 1268 2083 1268 2598 0 286 -72 616 -184 847 -238 487
-697 810 -1296 910 -91 15 -412 28 -495 19z"/>
</g>
</svg>
