<svg width="25" height="24" viewBox="0 0 25 24" fill="none" xmlns="http://www.w3.org/2000/svg">
<path fill-rule="evenodd" clip-rule="evenodd" d="M12.3689 3.20392L5.31344 9.83327L4.94996 10.1748L3.8054 11.2502L3.49062 11.546C3.1871 11.8312 3.38892 12.3407 3.8054 12.3407H4.23734H5.80787H6.29102L6.30636 12.341C6.55315 12.3491 6.75072 12.5517 6.75072 12.8004V20.35C6.75072 20.3624 6.75121 20.3746 6.75218 20.3868V23.282C5.33105 23.0616 4.24327 21.8328 4.24327 20.35V14.8482H3.8054C1.11718 14.8482 -0.185465 11.5594 1.77362 9.71866L10.6519 1.37656C11.7939 0.303514 13.5734 0.303519 14.7154 1.37656L23.5937 9.71866C25.5528 11.5594 24.2501 14.8482 21.5619 14.8482H21.1262V20.35C21.1262 21.8316 20.0402 23.0596 18.6208 23.2814V20.0885H18.6188V12.8004C18.6188 12.5524 18.8152 12.3502 19.061 12.3411C19.0668 12.3408 19.0726 12.3407 19.0785 12.3407H19.5594H21.13H21.5619C21.9784 12.3407 22.1802 11.8312 21.8767 11.546L21.5619 11.2502L20.4174 10.1748L20.0539 9.83327L12.9984 3.20392C12.8215 3.03767 12.5458 3.03767 12.3689 3.20392Z" fill="#3540F4"/>
</svg>
